<svg width="16" height="16" viewBox="0 0 16 16" fill="none" xmlns="http://www.w3.org/2000/svg">
  <path fill-rule="evenodd" clip-rule="evenodd" d="M10.807 8.25293C11.2195 8.29068 11.5233 8.65567 11.4855 9.06816C11.416 9.82819 11.1 10.5447 10.5857 11.1086C10.0714 11.6725 9.38697 12.0529 8.63654 12.192C8.22926 12.2674 7.83791 11.9984 7.76244 11.5912C7.68697 11.1839 7.95596 10.7925 8.36324 10.7171C8.7922 10.6376 9.18344 10.4201 9.47742 10.0978C9.7714 9.77545 9.95202 9.36589 9.99178 8.93145C10.0295 8.51896 10.3945 8.21517 10.807 8.25293Z" fill="#FF6335"/>
  <path fill-rule="evenodd" clip-rule="evenodd" d="M8.66512 0.630548C8.96045 0.355298 9.42067 0.363203 9.70637 0.648434C11.5171 2.45623 14 5.1566 14 8.74973C14 10.341 13.3679 11.8672 12.2426 12.9924C11.1174 14.1176 9.5913 14.7497 8 14.7497C6.4087 14.7497 4.88258 14.1176 3.75736 12.9924C2.63214 11.8672 2 10.341 2 8.74973C2 6.97416 2.88964 5.15881 3.87725 3.66998C4.10123 3.33232 4.5529 3.23362 4.89732 3.44706L4.89739 3.4471C4.90445 3.45147 4.91143 3.45596 4.91834 3.46057L6.69528 4.64519L8.49927 0.8568C8.53982 0.771646 8.59607 0.694904 8.66507 0.630599L8.66512 0.630548ZM9.39062 2.47389L7.67715 6.07218C7.58357 6.26868 7.40926 6.41484 7.19946 6.47272C6.98966 6.5306 6.76506 6.49449 6.58397 6.37377L4.72665 5.13555C3.99705 6.36233 3.5 7.62321 3.5 8.74973C3.5 9.9432 3.97411 11.0878 4.81802 11.9317C5.66193 12.7756 6.80653 13.2497 8 13.2497C9.19347 13.2497 10.3381 12.7756 11.182 11.9317C12.0259 11.0878 12.5 9.9432 12.5 8.74973C12.5 6.23312 10.9881 4.17164 9.39062 2.47389Z" fill="#FF6335"/>
</svg>
