<svg width="64" height="64" viewBox="0 0 64 64" fill="none" xmlns="http://www.w3.org/2000/svg">
  <circle cx="32" cy="32" r="32" fill="#ECECEC"/>
  <path fill-rule="evenodd" clip-rule="evenodd" d="M15.75 21.1667C15.75 19.786 16.8693 18.6667 18.25 18.6667H45.75C47.1307 18.6667 48.25 19.786 48.25 21.1667V43.6667C48.25 45.0475 47.1307 46.1667 45.75 46.1667H18.25C16.8693 46.1667 15.75 45.0475 15.75 43.6667V21.1667ZM45.75 21.1667H18.25V43.6667H45.75V21.1667Z" fill="#A9AFBD"/>
  <path fill-rule="evenodd" clip-rule="evenodd" d="M24.7933 28.0238C25.0966 27.8982 25.4217 27.8335 25.75 27.8335C26.0783 27.8335 26.4034 27.8982 26.7067 28.0238C27.01 28.1494 27.2856 28.3336 27.5177 28.5657L34.5 35.548L37.7322 32.3157C37.9644 32.0836 38.24 31.8994 38.5433 31.7738C38.8466 31.6482 39.1717 31.5835 39.5 31.5835C39.8283 31.5835 40.1534 31.6482 40.4567 31.7738C40.76 31.8994 41.0356 32.0836 41.2677 32.3157L47.8839 38.9319C48.1183 39.1663 48.25 39.4842 48.25 39.8157V43.5657C48.25 44.2561 47.6903 44.8157 47 44.8157H17C16.3096 44.8157 15.75 44.2561 15.75 43.5657V37.3157C15.75 36.9842 15.8817 36.6662 16.1161 36.4318L23.9822 28.5657C24.2144 28.3336 24.49 28.1494 24.7933 28.0238ZM18.25 37.8335V44.1356H45.75V40.3335L39.5 34.0835L36.2677 37.3157C36.0356 37.5479 35.76 37.732 35.4567 37.8577C35.1534 37.9833 34.8283 38.048 34.5 38.048C34.1717 38.048 33.8466 37.9833 33.5433 37.8577C33.24 37.732 32.9644 37.5479 32.7322 37.3157L25.75 30.3335L18.25 37.8335Z" fill="#A9AFBD"/>
  <path d="M36.375 29.5C37.4105 29.5 38.25 28.6605 38.25 27.625C38.25 26.5895 37.4105 25.75 36.375 25.75C35.3395 25.75 34.5 26.5895 34.5 27.625C34.5 28.6605 35.3395 29.5 36.375 29.5Z" fill="#A9AFBD"/>
</svg>
