<svg width="160" height="160" viewBox="0 0 160 160" fill="none" xmlns="http://www.w3.org/2000/svg">
  <rect width="160" height="160" rx="4" fill="#ECECEC"/>
  <path fill-rule="evenodd" clip-rule="evenodd" d="M60.5 67C60.5 65.3431 61.8431 64 63.5 64H96.5C98.1569 64 99.5 65.3431 99.5 67V94C99.5 95.6569 98.1569 97 96.5 97H63.5C61.8431 97 60.5 95.6569 60.5 94V67ZM96.5 67H63.5V94H96.5V67Z" fill="#A9AFBD"/>
  <path fill-rule="evenodd" clip-rule="evenodd" d="M71.3519 75.2284C71.7159 75.0776 72.106 75 72.5 75C72.8939 75 73.284 75.0776 73.648 75.2284C74.012 75.3791 74.3427 75.6001 74.6213 75.8787L83 84.2574L86.8787 80.3787C87.1572 80.1001 87.4879 79.8791 87.8519 79.7284C88.2159 79.5776 88.606 79.5 89 79.5C89.3939 79.5 89.784 79.5776 90.148 79.7284C90.512 79.8791 90.8427 80.1001 91.1213 80.3787L99.0606 88.318C99.3419 88.5993 99.5 88.9809 99.5 89.3787V93.8787C99.5 94.7071 98.8284 95.3787 98 95.3787H62C61.1716 95.3787 60.5 94.7071 60.5 93.8787V86.3787C60.5 85.9808 60.658 85.5993 60.9393 85.318L70.3787 75.8787C70.6572 75.6001 70.9879 75.3791 71.3519 75.2284ZM63.5 87V94.5625H96.5V90L89 82.5L85.1213 86.3787C84.8427 86.6573 84.512 86.8782 84.148 87.029C83.784 87.1798 83.3939 87.2574 83 87.2574C82.606 87.2574 82.2159 87.1798 81.8519 87.029C81.4879 86.8782 81.1572 86.6573 80.8787 86.3787L72.5 78L63.5 87Z" fill="#A9AFBD"/>
  <path d="M85.25 77C86.4926 77 87.5 75.9926 87.5 74.75C87.5 73.5074 86.4926 72.5 85.25 72.5C84.0074 72.5 83 73.5074 83 74.75C83 75.9926 84.0074 77 85.25 77Z" fill="#A9AFBD"/>
</svg>
