<svg width="34" height="29" viewBox="0 0 34 29" fill="none" xmlns="http://www.w3.org/2000/svg">
  <path fill-rule="evenodd" clip-rule="evenodd" d="M0.75 3.1665C0.75 1.78579 1.86929 0.666504 3.25 0.666504H30.75C32.1307 0.666504 33.25 1.78579 33.25 3.1665V25.6665C33.25 27.0472 32.1307 28.1665 30.75 28.1665H3.25C1.86929 28.1665 0.75 27.0472 0.75 25.6665V3.1665ZM30.75 3.1665H3.25V25.6665H30.75V3.1665Z" fill="#A9AFBD"/>
  <path fill-rule="evenodd" clip-rule="evenodd" d="M9.79327 10.0233C10.0966 9.89767 10.4217 9.83301 10.75 9.83301C11.0783 9.83301 11.4034 9.89767 11.7067 10.0233C12.01 10.1489 12.2856 10.3331 12.5177 10.5652L19.5 17.5475L22.7322 14.3152C22.9644 14.0831 23.24 13.8989 23.5433 13.7733C23.8466 13.6477 24.1717 13.583 24.5 13.583C24.8283 13.583 25.1534 13.6477 25.4567 13.7733C25.76 13.8989 26.0356 14.0831 26.2677 14.3152L32.8839 20.9314C33.1183 21.1658 33.25 21.4837 33.25 21.8152V25.5652C33.25 26.2556 32.6903 26.8152 32 26.8152H2C1.30964 26.8152 0.75 26.2556 0.75 25.5652V19.3152C0.75 18.9837 0.881696 18.6658 1.11612 18.4313L8.98221 10.5652C9.21435 10.3331 9.48995 10.1489 9.79327 10.0233ZM3.25 19.833V26.1351H30.75V22.333L24.5 16.083L21.2677 19.3152C21.0356 19.5474 20.76 19.7315 20.4567 19.8572C20.1534 19.9828 19.8283 20.0475 19.5 20.0475C19.1717 20.0475 18.8466 19.9828 18.5433 19.8572C18.24 19.7315 17.9644 19.5474 17.7322 19.3152L10.75 12.333L3.25 19.833Z" fill="#A9AFBD"/>
  <path d="M21.375 11.5C22.4105 11.5 23.25 10.6605 23.25 9.625C23.25 8.58947 22.4105 7.75 21.375 7.75C20.3395 7.75 19.5 8.58947 19.5 9.625C19.5 10.6605 20.3395 11.5 21.375 11.5Z" fill="#A9AFBD"/>
</svg>
