<svg width="48" height="48" viewBox="0 0 48 48" fill="none" xmlns="http://www.w3.org/2000/svg">
  <path fill-rule="evenodd" clip-rule="evenodd" d="M4.5 11C4.5 9.34315 5.84315 8 7.5 8H40.5C42.1569 8 43.5 9.34315 43.5 11V38C43.5 39.6569 42.1569 41 40.5 41H7.5C5.84315 41 4.5 39.6569 4.5 38V11ZM40.5 11H7.5V38H40.5V11Z" fill="#A9AFBD"/>
  <path fill-rule="evenodd" clip-rule="evenodd" d="M15.3519 19.2284C15.7159 19.0776 16.106 19 16.5 19C16.8939 19 17.284 19.0776 17.648 19.2284C18.012 19.3791 18.3427 19.6001 18.6213 19.8787L27 28.2574L30.8787 24.3787C31.1572 24.1001 31.4879 23.8791 31.8519 23.7284C32.2159 23.5776 32.606 23.5 33 23.5C33.3939 23.5 33.784 23.5776 34.148 23.7284C34.512 23.8791 34.8427 24.1001 35.1213 24.3787L43.0606 32.318C43.3419 32.5993 43.5 32.9809 43.5 33.3787V37.8787C43.5 38.7071 42.8284 39.3787 42 39.3787H6C5.17157 39.3787 4.5 38.7071 4.5 37.8787V30.3787C4.5 29.9808 4.65804 29.5993 4.93934 29.318L14.3787 19.8787C14.6572 19.6001 14.9879 19.3791 15.3519 19.2284ZM7.5 31V38.5625H40.5V34L33 26.5L29.1213 30.3787C28.8427 30.6573 28.512 30.8782 28.148 31.029C27.784 31.1798 27.3939 31.2574 27 31.2574C26.606 31.2574 26.2159 31.1798 25.8519 31.029C25.4879 30.8782 25.1572 30.6573 24.8787 30.3787L16.5 22L7.5 31Z" fill="#A9AFBD"/>
  <path d="M29.25 21C30.4926 21 31.5 19.9926 31.5 18.75C31.5 17.5074 30.4926 16.5 29.25 16.5C28.0074 16.5 27 17.5074 27 18.75C27 19.9926 28.0074 21 29.25 21Z" fill="#A9AFBD"/>
</svg>
