<svg width="24" height="24" viewBox="0 0 24 24" fill="none" xmlns="http://www.w3.org/2000/svg">
<path fill-rule="evenodd" clip-rule="evenodd" d="M14.6893 2.99989C14.9706 2.71858 15.3522 2.56055 15.75 2.56055C16.1478 2.56055 16.5294 2.71858 16.8107 2.99989L21 7.18923C21.2813 7.47053 21.4393 7.85206 21.4393 8.24989C21.4393 8.64771 21.2813 9.02924 21 9.31055L9.75 20.5605C9.61072 20.6998 9.44536 20.8103 9.26337 20.8857C9.08138 20.9611 8.88632 20.9999 8.68934 20.9999H4.5C4.10218 20.9999 3.72065 20.8419 3.43934 20.5605C3.15804 20.2792 3 19.8977 3 19.4999V15.3105C3 15.1136 3.0388 14.9185 3.11418 14.7365C3.18956 14.5545 3.30005 14.3892 3.43934 14.2499L14.6893 2.99989ZM19.9393 8.24989L15.75 4.06055L4.5 15.3105L3.97563 14.7862L4.5 15.3105L4.5 19.4999L8.68934 19.4999L19.9393 8.24989Z" fill="#A9AFBD"/>
<path fill-rule="evenodd" clip-rule="evenodd" d="M12.2197 5.46967C12.5126 5.17678 12.9874 5.17678 13.2803 5.46967L18.5303 10.7197C18.8232 11.0126 18.8232 11.4874 18.5303 11.7803C18.2374 12.0732 17.7626 12.0732 17.4697 11.7803L12.2197 6.53033C11.9268 6.23744 11.9268 5.76256 12.2197 5.46967Z" fill="#A9AFBD"/>
<path fill-rule="evenodd" clip-rule="evenodd" d="M3.26752 14.5175C3.56041 14.2246 4.03529 14.2246 4.32818 14.5175L9.48256 19.6719C9.77545 19.9648 9.77545 20.4397 9.48256 20.7326C9.18967 21.0255 8.71479 21.0255 8.4219 20.7326L3.26752 15.5782C2.97463 15.2853 2.97463 14.8104 3.26752 14.5175Z" fill="#A9AFBD"/>
</svg>
