<svg width="81" height="74" viewBox="0 0 81 74" fill="none" xmlns="http://www.w3.org/2000/svg">
<path fill-rule="evenodd" clip-rule="evenodd" d="M71.3333 74H9.66667C4.61 74 0.5 69.8527 0.5 64.75V14.5V9.25C0.5 4.14737 4.61 0 9.66667 0H71.3333C76.39 0 80.5 4.14737 80.5 9.25V14.5V64.75C80.5 69.8527 76.39 74 71.3333 74ZM75.5 17V64.75C75.5 67.0676 73.63 68.9546 71.3333 68.9546H9.66667C7.37 68.9546 5.5 67.0676 5.5 64.75V17H75.5ZM75.5 12H5.5V9.25C5.5 6.93246 7.37 5.04546 9.66667 5.04546H71.3333C73.63 5.04546 75.5 6.93246 75.5 9.25V12ZM40.5 58C31.1245 58 23.5 50.824 23.5 42C23.5 33.176 31.1245 26 40.5 26C49.8755 26 57.5 33.176 57.5 42C57.5 50.824 49.8755 58 40.5 58ZM40.5 30C33.4705 30 27.75 35.384 27.75 42C27.75 48.616 33.4705 54 40.5 54C47.5295 54 53.25 48.616 53.25 42C53.25 35.384 47.5295 30 40.5 30ZM37.3741 47C36.8942 47 36.4143 46.8175 36.0493 46.4501C35.3169 45.7177 35.3169 44.5305 36.0493 43.7981L37.8478 41.9997L36.0493 40.2013C35.3169 39.4689 35.3169 38.2816 36.0493 37.5493C36.7817 36.8169 37.9691 36.8169 38.7015 37.5493L40.5 39.3477L42.2985 37.5493C43.0309 36.8169 44.2183 36.8169 44.9507 37.5493C45.6831 38.2816 45.6831 39.4689 44.9507 40.2013L43.1522 41.9997L44.9507 43.7981C45.6831 44.5305 45.6831 45.7177 44.9507 46.4501C44.5832 46.8175 44.1033 47 43.6234 47C43.1434 47 42.6635 46.8175 42.2985 46.4501L40.5 44.6517L38.7015 46.4501C38.334 46.8175 37.8541 47 37.3741 47Z" fill="#CDD2DD"/>
</svg>
