<svg width="16" height="16" viewBox="0 0 16 16" fill="none" xmlns="http://www.w3.org/2000/svg">
  <path d="M8 1.5C6.71443 1.5 5.45772 1.88122 4.3888 2.59545C3.31988 3.30968 2.48676 4.32484 1.99479 5.51256C1.50282 6.70028 1.37409 8.00721 1.6249 9.26809C1.8757 10.529 2.49477 11.6872 3.40381 12.5962C4.31285 13.5052 5.47104 14.1243 6.73192 14.3751C7.99279 14.6259 9.29973 14.4972 10.4874 14.0052C11.6752 13.5132 12.6903 12.6801 13.4046 11.6112C14.1188 10.5423 14.5 9.28558 14.5 8C14.4981 6.27669 13.8126 4.62452 12.594 3.40596C11.3755 2.1874 9.72331 1.50195 8 1.5ZM8.00004 12C7.8517 12 7.7067 11.956 7.58336 11.8736C7.46002 11.7912 7.36389 11.6741 7.30713 11.537C7.25036 11.4 7.23551 11.2492 7.26445 11.1037C7.29339 10.9582 7.36482 10.8246 7.46971 10.7197C7.5746 10.6148 7.70823 10.5434 7.85372 10.5144C7.99921 10.4855 8.15001 10.5003 8.28705 10.5571C8.4241 10.6139 8.54123 10.71 8.62364 10.8333C8.70605 10.9567 8.75004 11.1017 8.75004 11.25C8.75004 11.4489 8.67102 11.6397 8.53037 11.7804C8.38972 11.921 8.19895 12 8.00004 12ZM8.50001 8.94433V9.0003C8.50001 9.13291 8.44733 9.26009 8.35356 9.35386C8.25979 9.44763 8.13262 9.5003 8.00001 9.5003C7.8674 9.5003 7.74022 9.44763 7.64645 9.35386C7.55269 9.26009 7.50001 9.13291 7.50001 9.0003V8.5003C7.50001 8.3677 7.55269 8.24053 7.64646 8.14676C7.74023 8.05299 7.8674 8.00031 8.00001 8.0003C8.24723 8.0003 8.48891 7.92699 8.69447 7.78964C8.90003 7.65229 9.06025 7.45707 9.15486 7.22866C9.24947 7.00025 9.27422 6.74892 9.22599 6.50644C9.17776 6.26397 9.05871 6.04124 8.88389 5.86642C8.70907 5.69161 8.48635 5.57255 8.24387 5.52432C8.00139 5.47609 7.75006 5.50085 7.52165 5.59545C7.29324 5.69006 7.09802 5.85028 6.96067 6.05584C6.82332 6.2614 6.75001 6.50308 6.75001 6.7503C6.75001 6.88291 6.69733 7.01009 6.60356 7.10386C6.50979 7.19763 6.38262 7.2503 6.25001 7.2503C6.1174 7.2503 5.99022 7.19763 5.89645 7.10386C5.80269 7.01009 5.75001 6.88291 5.75001 6.7503C5.75006 6.32676 5.86966 5.91183 6.09506 5.55323C6.32045 5.19464 6.64249 4.90695 7.02412 4.72325C7.40575 4.53954 7.83149 4.46729 8.25236 4.51479C8.67324 4.5623 9.07216 4.72763 9.40324 4.99178C9.73433 5.25593 9.98413 5.60816 10.1239 6.00798C10.2637 6.40779 10.2878 6.83894 10.1935 7.25184C10.0991 7.66474 9.89012 8.04263 9.59054 8.34204C9.29097 8.64144 8.91296 8.85021 8.50001 8.94433Z" fill="#66C9FF"/>
</svg>
