<svg width="24" height="24" viewBox="0 0 24 24" fill="none" xmlns="http://www.w3.org/2000/svg">
  <path fill-rule="evenodd" clip-rule="evenodd" d="M3.74951 4.5L20.2495 4.5C20.6637 4.5 20.9995 4.83579 20.9995 5.25C20.9995 5.66421 20.6637 6 20.2495 6L3.74951 6C3.3353 6 2.99951 5.66422 2.99951 5.25C2.99951 4.83579 3.3353 4.5 3.74951 4.5Z" fill="#A9AFBD"/>
  <path fill-rule="evenodd" clip-rule="evenodd" d="M9.75 9C10.1642 9 10.5 9.33579 10.5 9.75V15.75C10.5 16.1642 10.1642 16.5 9.75 16.5C9.33579 16.5 9 16.1642 9 15.75V9.75C9 9.33579 9.33579 9 9.75 9Z" fill="#A9AFBD"/>
  <path fill-rule="evenodd" clip-rule="evenodd" d="M14.25 9C14.6642 9 15 9.33579 15 9.75V15.75C15 16.1642 14.6642 16.5 14.25 16.5C13.8358 16.5 13.5 16.1642 13.5 15.75V9.75C13.5 9.33579 13.8358 9 14.25 9Z" fill="#A9AFBD"/>
  <path fill-rule="evenodd" clip-rule="evenodd" d="M7.5 2.25C7.5 1.83579 7.83579 1.5 8.25 1.5H15.75C16.1642 1.5 16.5 1.83579 16.5 2.25C16.5 2.66421 16.1642 3 15.75 3H8.25C7.83579 3 7.5 2.66421 7.5 2.25Z" fill="#A9AFBD"/>
  <path fill-rule="evenodd" clip-rule="evenodd" d="M5.24951 4.5C5.66373 4.5 5.99951 4.83579 5.99951 5.25V19.5H17.9995V5.25C17.9995 4.83579 18.3353 4.5 18.7495 4.5C19.1637 4.5 19.4995 4.83579 19.4995 5.25V19.5C19.4995 19.8978 19.3415 20.2794 19.0602 20.5607C18.7789 20.842 18.3973 21 17.9995 21H5.99951C5.60169 21 5.22016 20.842 4.93885 20.5607C4.65755 20.2794 4.49951 19.8978 4.49951 19.5V5.25C4.49951 4.83579 4.8353 4.5 5.24951 4.5Z" fill="#A9AFBD"/>
</svg>
