<svg width="34" height="40" viewBox="0 0 34 40" fill="none" xmlns="http://www.w3.org/2000/svg">
  <path fill-rule="evenodd" clip-rule="evenodd" d="M3.49853 3.125C3.39908 3.125 3.3037 3.16451 3.23337 3.23484C3.16304 3.30516 3.12353 3.40054 3.12353 3.5V36.5C3.12353 36.5995 3.16304 36.6948 3.23337 36.7652C3.30369 36.8355 3.39908 36.875 3.49853 36.875H30.5C30.5492 36.875 30.598 36.8653 30.6435 36.8465C30.689 36.8276 30.7303 36.8 30.7652 36.7652C30.8 36.7304 30.8276 36.689 30.8465 36.6435C30.8653 36.598 30.875 36.5493 30.875 36.5V12.966L21.034 3.125H3.49853ZM1.64238 1.64385C2.13466 1.15156 2.80234 0.875 3.49853 0.875H21.5C21.7984 0.875 22.0845 0.993526 22.2955 1.2045L32.7955 11.7045C33.0065 11.9155 33.125 12.2016 33.125 12.5V36.5C33.125 36.8447 33.0571 37.1861 32.9252 37.5045C32.7933 37.823 32.5999 38.1124 32.3562 38.3562C32.1124 38.5999 31.823 38.7933 31.5045 38.9252C31.1861 39.0571 30.8447 39.125 30.5 39.125H3.49853C2.80234 39.125 2.13466 38.8485 1.64238 38.3562C1.1501 37.8639 0.873535 37.1962 0.873535 36.5V3.5C0.873535 2.80381 1.1501 2.13613 1.64238 1.64385Z" fill="#1DB0FF"/>
  <path fill-rule="evenodd" clip-rule="evenodd" d="M21.5 0.875C22.1213 0.875 22.625 1.37868 22.625 2V11.375H32.0015C32.6228 11.375 33.1265 11.8787 33.1265 12.5C33.1265 13.1213 32.6228 13.625 32.0015 13.625H21.5C20.8787 13.625 20.375 13.1213 20.375 12.5V2C20.375 1.37868 20.8787 0.875 21.5 0.875Z" fill="#1DB0FF"/>
  <path fill-rule="evenodd" clip-rule="evenodd" d="M16.2045 17.7045C16.6438 17.2652 17.3562 17.2652 17.7955 17.7045L23.0455 22.9545C23.4848 23.3938 23.4848 24.1062 23.0455 24.5455C22.6062 24.9848 21.8938 24.9848 21.4545 24.5455L17 20.091L12.5455 24.5455C12.1062 24.9848 11.3938 24.9848 10.9545 24.5455C10.5152 24.1062 10.5152 23.3938 10.9545 22.9545L16.2045 17.7045Z" fill="#1DB0FF"/>
  <path fill-rule="evenodd" clip-rule="evenodd" d="M17 17.375C17.6213 17.375 18.125 17.8787 18.125 18.5V30.5C18.125 31.1213 17.6213 31.625 17 31.625C16.3787 31.625 15.875 31.1213 15.875 30.5V18.5C15.875 17.8787 16.3787 17.375 17 17.375Z" fill="#1DB0FF"/>
</svg>
