<svg width="140" height="64" viewBox="0 0 140 64" fill="none" xmlns="http://www.w3.org/2000/svg">
<path d="M7.35509 46.1172H8.44364L11.2203 53.0723L13.9912 46.1172H15.0856L11.6394 54.6484H10.7896L7.35509 46.1172ZM7 46.1172H7.96049L8.11766 51.3203V54.6484H7V46.1172ZM14.4743 46.1172H15.4348V54.6484H14.3172V51.3203L14.4743 46.1172Z" fill="#040B1D"/>
<path d="M18.4152 48.3086V54.6484H17.3325V48.3086H18.4152ZM17.251 46.627C17.251 46.4512 17.3034 46.3027 17.4082 46.1816C17.5168 46.0605 17.676 46 17.8855 46C18.0912 46 18.2484 46.0605 18.357 46.1816C18.4696 46.3027 18.5258 46.4512 18.5258 46.627C18.5258 46.7949 18.4696 46.9395 18.357 47.0605C18.2484 47.1777 18.0912 47.2363 17.8855 47.2363C17.676 47.2363 17.5168 47.1777 17.4082 47.0605C17.3034 46.9395 17.251 46.7949 17.251 46.627Z" fill="#040B1D"/>
<path d="M21.221 49.6621V54.6484H20.1441V48.3086H21.1628L21.221 49.6621ZM20.9649 51.2383L20.5167 51.2207C20.5206 50.7871 20.5846 50.3867 20.7088 50.0195C20.833 49.6484 21.0076 49.3262 21.2327 49.0527C21.4578 48.7793 21.7255 48.5684 22.036 48.4199C22.3503 48.2676 22.6977 48.1914 23.078 48.1914C23.3884 48.1914 23.6678 48.2344 23.9162 48.3203C24.1646 48.4023 24.3761 48.5352 24.5507 48.7188C24.7292 48.9023 24.8651 49.1406 24.9582 49.4336C25.0513 49.7227 25.0979 50.0762 25.0979 50.4941V54.6484H24.0152V50.4824C24.0152 50.1504 23.9667 49.8848 23.8696 49.6855C23.7726 49.4824 23.631 49.3359 23.4447 49.2461C23.2584 49.1523 23.0295 49.1055 22.7578 49.1055C22.49 49.1055 22.2455 49.1621 22.0243 49.2754C21.807 49.3887 21.6188 49.5449 21.4597 49.7441C21.3045 49.9434 21.1822 50.1719 21.093 50.4297C21.0076 50.6836 20.9649 50.9531 20.9649 51.2383Z" fill="#040B1D"/>
<path d="M29.3706 48.3086V49.1406H25.9653V48.3086H29.3706ZM27.1178 46.7676H28.1947V53.0781C28.1947 53.293 28.2277 53.4551 28.2937 53.5645C28.3597 53.6738 28.4451 53.7461 28.5498 53.7812C28.6546 53.8164 28.7672 53.834 28.8875 53.834C28.9767 53.834 29.0699 53.8262 29.1669 53.8105C29.2678 53.791 29.3434 53.7754 29.3939 53.7637L29.3997 54.6484C29.3143 54.6758 29.2018 54.7012 29.0621 54.7246C28.9263 54.752 28.7613 54.7656 28.5673 54.7656C28.3034 54.7656 28.0609 54.7129 27.8397 54.6074C27.6185 54.502 27.4419 54.3262 27.3099 54.0801C27.1819 53.8301 27.1178 53.4941 27.1178 53.0723V46.7676Z" fill="#040B1D"/>
<path d="M33.2475 54.7656C32.809 54.7656 32.4112 54.6914 32.0542 54.543C31.701 54.3906 31.3964 54.1777 31.1402 53.9043C30.888 53.6309 30.694 53.3066 30.5581 52.9316C30.4223 52.5566 30.3544 52.1465 30.3544 51.7012V51.4551C30.3544 50.9395 30.4301 50.4805 30.5814 50.0781C30.7328 49.6719 30.9384 49.3281 31.1984 49.0469C31.4585 48.7656 31.7534 48.5527 32.0833 48.4082C32.4131 48.2637 32.7546 48.1914 33.1078 48.1914C33.5579 48.1914 33.946 48.2695 34.272 48.4258C34.6019 48.582 34.8716 48.8008 35.0811 49.082C35.2907 49.3594 35.4459 49.6875 35.5468 50.0664C35.6477 50.4414 35.6982 50.8516 35.6982 51.2969V51.7832H30.9947V50.8984H34.6213V50.8164C34.6058 50.5352 34.5475 50.2617 34.4466 49.9961C34.3496 49.7305 34.1944 49.5117 33.9809 49.3398C33.7675 49.168 33.4765 49.082 33.1078 49.082C32.8633 49.082 32.6382 49.1348 32.4325 49.2402C32.2268 49.3418 32.0503 49.4941 31.9028 49.6973C31.7553 49.9004 31.6409 50.1484 31.5594 50.4414C31.4779 50.7344 31.4371 51.0723 31.4371 51.4551V51.7012C31.4371 52.002 31.4779 52.2852 31.5594 52.5508C31.6447 52.8125 31.767 53.043 31.9261 53.2422C32.0891 53.4414 32.2851 53.5977 32.514 53.7109C32.7469 53.8242 33.0108 53.8809 33.3057 53.8809C33.686 53.8809 34.0081 53.8027 34.272 53.6465C34.5359 53.4902 34.7668 53.2812 34.9647 53.0195L35.6167 53.541C35.4809 53.748 35.3082 53.9453 35.0986 54.1328C34.889 54.3203 34.631 54.4727 34.3244 54.5898C34.0217 54.707 33.6627 54.7656 33.2475 54.7656Z" fill="#040B1D"/>
<path d="M38.0325 49.3047V54.6484H36.9555V48.3086H38.0034L38.0325 49.3047ZM40 48.2734L39.9942 49.2812C39.9049 49.2617 39.8195 49.25 39.738 49.2461C39.6604 49.2383 39.5712 49.2344 39.4703 49.2344C39.2219 49.2344 39.0026 49.2734 38.8125 49.3516C38.6223 49.4297 38.4613 49.5391 38.3293 49.6797C38.1974 49.8203 38.0926 49.9883 38.015 50.1836C37.9413 50.375 37.8927 50.5859 37.8695 50.8164L37.5668 50.9922C37.5668 50.6094 37.6036 50.25 37.6774 49.9141C37.755 49.5781 37.8733 49.2812 38.0325 49.0234C38.1916 48.7617 38.3934 48.5586 38.6379 48.4141C38.8862 48.2656 39.1812 48.1914 39.5227 48.1914C39.6003 48.1914 39.6895 48.2012 39.7904 48.2207C39.8913 48.2363 39.9612 48.2539 40 48.2734Z" fill="#040B1D"/>
<path d="M49.3672 51.9004C49.3672 52.8691 49.1445 53.6484 48.6992 54.2383C48.2539 54.8242 47.6562 55.1172 46.9062 55.1172C46.1055 55.1172 45.4863 54.834 45.0488 54.2676L44.9961 55H44V46H45.084V49.3574C45.5215 48.8145 46.125 48.543 46.8945 48.543C47.6641 48.543 48.2676 48.834 48.7051 49.416C49.1465 49.998 49.3672 50.7949 49.3672 51.8066V51.9004ZM48.2832 51.7773C48.2832 51.0391 48.1406 50.4688 47.8555 50.0664C47.5703 49.6641 47.1602 49.4629 46.625 49.4629C45.9102 49.4629 45.3965 49.7949 45.084 50.459V53.2012C45.416 53.8652 45.9336 54.1973 46.6367 54.1973C47.1562 54.1973 47.5605 53.9961 47.8496 53.5938C48.1387 53.1914 48.2832 52.5859 48.2832 51.7773Z" fill="#7F90A1"/>
<path d="M53.3691 55.1172C52.5098 55.1172 51.8105 54.8359 51.2715 54.2734C50.7324 53.707 50.4629 52.9512 50.4629 52.0059V51.8066C50.4629 51.1777 50.582 50.6172 50.8203 50.125C51.0625 49.6289 51.3984 49.2422 51.8281 48.9648C52.2617 48.6836 52.7305 48.543 53.2344 48.543C54.0586 48.543 54.6992 48.8145 55.1562 49.3574C55.6133 49.9004 55.8418 50.6777 55.8418 51.6895V52.1406H51.5469C51.5625 52.7656 51.7441 53.2715 52.0918 53.6582C52.4434 54.041 52.8887 54.2324 53.4277 54.2324C53.8105 54.2324 54.1348 54.1543 54.4004 53.998C54.666 53.8418 54.8984 53.6348 55.0977 53.377L55.7598 53.8926C55.2285 54.709 54.4316 55.1172 53.3691 55.1172ZM53.2344 49.4336C52.7969 49.4336 52.4297 49.5938 52.1328 49.9141C51.8359 50.2305 51.6523 50.6758 51.582 51.25H54.7578V51.168C54.7266 50.6172 54.5781 50.1914 54.3125 49.8906C54.0469 49.5859 53.6875 49.4336 53.2344 49.4336Z" fill="#7F90A1"/>
<path d="M58.5723 47.125V48.6602H59.7559V49.498H58.5723V53.4297C58.5723 53.6836 58.625 53.875 58.7305 54.0039C58.8359 54.1289 59.0156 54.1914 59.2695 54.1914C59.3945 54.1914 59.5664 54.168 59.7852 54.1211V55C59.5 55.0781 59.2227 55.1172 58.9531 55.1172C58.4688 55.1172 58.1035 54.9707 57.8574 54.6777C57.6113 54.3848 57.4883 53.9688 57.4883 53.4297V49.498H56.334V48.6602H57.4883V47.125H58.5723Z" fill="#7F90A1"/>
<path d="M64.9414 55C64.8789 54.875 64.8281 54.6523 64.7891 54.332C64.2852 54.8555 63.6836 55.1172 62.9844 55.1172C62.3594 55.1172 61.8457 54.9414 61.4434 54.5898C61.0449 54.2344 60.8457 53.7852 60.8457 53.2422C60.8457 52.582 61.0957 52.0703 61.5957 51.707C62.0996 51.3398 62.8066 51.1562 63.7168 51.1562H64.7715V50.6582C64.7715 50.2793 64.6582 49.9785 64.4316 49.7559C64.2051 49.5293 63.8711 49.416 63.4297 49.416C63.043 49.416 62.7188 49.5137 62.457 49.709C62.1953 49.9043 62.0645 50.1406 62.0645 50.418H60.9746C60.9746 50.1016 61.0859 49.7969 61.3086 49.5039C61.5352 49.207 61.8398 48.9727 62.2227 48.8008C62.6094 48.6289 63.0332 48.543 63.4941 48.543C64.2246 48.543 64.7969 48.7266 65.2109 49.0938C65.625 49.457 65.8398 49.959 65.8555 50.5996V53.5176C65.8555 54.0996 65.9297 54.5625 66.0781 54.9062V55H64.9414ZM63.1426 54.1738C63.4824 54.1738 63.8047 54.0859 64.1094 53.9102C64.4141 53.7344 64.6348 53.5059 64.7715 53.2246V51.9238H63.9219C62.5938 51.9238 61.9297 52.3125 61.9297 53.0898C61.9297 53.4297 62.043 53.6953 62.2695 53.8867C62.4961 54.0781 62.7871 54.1738 63.1426 54.1738Z" fill="#7F90A1"/>
<path fill-rule="evenodd" clip-rule="evenodd" d="M77.8039 39.9494C77.8039 40.4404 78.2496 40.8079 78.7177 40.6825C86.3353 38.6411 91.9546 31.5597 91.9546 23.1374C91.9546 13.1204 84.0057 5 74.2001 5C64.3945 5 56.4456 13.1204 56.4456 23.1374C56.4456 31.7533 62.3263 38.966 70.211 40.8153C70.6739 40.9238 71.1038 40.5582 71.1038 40.0765V35.7796C71.1038 35.4325 70.875 35.1299 70.5494 35.0228C68.0523 34.2008 66.0327 32.7454 64.4904 30.6566C62.8472 28.4152 62.0256 25.8181 62.0256 22.8652C62.0256 18.9637 63.4605 15.7677 66.3304 13.2773C68.7142 11.2138 71.4278 10.1821 74.4712 10.1821C78.394 10.1821 81.5589 11.6348 83.9659 14.5403C85.91 16.8883 86.882 19.5981 86.882 22.6696C86.882 25.6817 86.0199 28.3796 84.2957 30.7633C82.8496 32.7761 80.87 34.1959 78.3571 35.0226C78.0319 35.1296 77.8039 35.432 77.8039 35.7786V39.9494ZM77.5782 25.5962C77.5782 25.1686 77.2363 24.822 76.8146 24.822H72.1104C71.6887 24.822 71.3468 25.1686 71.3468 25.5962V25.8899C71.3468 26.5464 70.6126 26.8714 70.2461 26.3301C69.5912 25.3632 69.2638 24.2201 69.2638 22.9008C69.2638 21.3947 69.7788 20.0903 70.8087 18.9874C71.8386 17.8845 73.0594 17.3331 74.4712 17.3331C75.8714 17.3331 77.0864 17.8845 78.1163 18.9874C79.1462 20.0903 79.6611 21.3947 79.6611 22.9008C79.6611 24.18 79.3376 25.3071 78.6904 26.2823C78.325 26.8329 77.5782 26.5105 77.5782 25.8469V25.5962Z" fill="#15ADFF"/>
<path d="M7 16.2881C7 15.8605 7.34189 15.5139 7.76364 15.5139H13.9616C14.3833 15.5139 14.7252 15.8605 14.7252 16.2881V26.7113C14.7252 27.199 14.8312 27.5843 15.0432 27.867C15.2553 28.1427 15.5152 28.2806 15.823 28.2806C16.1376 28.2806 16.4522 28.1321 16.7668 27.8352C17.0883 27.5313 17.249 27.1566 17.249 26.7113V16.2881C17.249 15.8605 17.5909 15.5139 18.0126 15.5139H24.3029C24.7246 15.5139 25.0665 15.8605 25.0665 16.2881V27.0188C25.0665 28.7931 24.6254 30.3306 23.7431 31.6313C22.8676 32.932 21.7186 33.9146 20.296 34.5791C18.8802 35.2436 17.3892 35.5758 15.823 35.5758C14.7081 35.5758 13.6206 35.3956 12.5605 35.0351C11.5004 34.6675 10.5497 34.1232 9.70844 33.4021C8.87402 32.674 8.21401 31.7727 7.72841 30.6982C7.2428 29.6237 7 28.3972 7 27.0188V16.2881Z" fill="#040B1D"/>
<path d="M27.6502 34.453C27.2284 34.453 26.8865 34.1064 26.8865 33.6788V22.0681C26.8865 20.5058 27.3072 19.1698 28.1484 18.0599C28.9965 16.943 30.1148 16.1018 31.5032 15.5363C32.8916 14.9707 34.3621 14.688 35.9147 14.688C37.5014 14.688 39.0095 14.9849 40.439 15.5787C41.8753 16.1654 43.0346 17.0455 43.9169 18.219C44.806 19.3924 45.2506 20.778 45.2506 22.3756V33.6788C45.2506 34.1064 44.9087 34.453 44.4869 34.453H37.8991C37.4774 34.453 37.1355 34.1064 37.1355 33.6788V22.8951C37.1355 22.471 37.0192 22.1564 36.7867 21.9514C36.561 21.7394 36.3011 21.6333 36.007 21.6333C35.6787 21.6333 35.3641 21.7606 35.0631 22.015C34.7622 22.2625 34.6117 22.5558 34.6117 22.8951V33.6788C34.6117 34.1064 34.2698 34.453 33.8481 34.453H27.6502Z" fill="#040B1D"/>
<path d="M47.8239 34.453C47.4022 34.453 47.0603 34.1064 47.0603 33.6788V15.6848C47.0603 15.2573 47.4022 14.9106 47.8239 14.9106H54.3297C54.7514 14.9106 55.0933 15.2573 55.0933 15.6848V33.6788C55.0933 34.1064 54.7514 34.453 54.3297 34.453H47.8239Z" fill="#040B1D"/>
<path d="M93.454 16.2881C93.454 15.8605 93.7959 15.5139 94.2176 15.5139H100.416C100.837 15.5139 101.179 15.8605 101.179 16.2881V26.7113C101.179 27.199 101.285 27.5843 101.497 27.867C101.709 28.1427 101.969 28.2806 102.277 28.2806C102.592 28.2806 102.906 28.1321 103.221 27.8352C103.542 27.5313 103.703 27.1566 103.703 26.7113V16.2881C103.703 15.8605 104.045 15.5139 104.467 15.5139H110.757C111.179 15.5139 111.521 15.8605 111.521 16.2881V27.0188C111.521 28.7931 111.079 30.3306 110.197 31.6313C109.322 32.932 108.173 33.9146 106.75 34.5791C105.334 35.2436 103.843 35.5758 102.277 35.5758C101.162 35.5758 100.075 35.3956 99.0145 35.0351C97.9544 34.6675 97.0037 34.1232 96.1624 33.4021C95.328 32.674 94.668 31.7727 94.1824 30.6982C93.6968 29.6237 93.454 28.3972 93.454 27.0188V16.2881Z" fill="#040B1D"/>
<path d="M132.666 21.4392C132.818 21.7943 132.671 22.2053 132.337 22.3934L124.008 27.0914C123.643 27.2977 123.181 27.167 122.974 26.7983L121.748 24.6191C121.537 24.2432 121.671 23.7646 122.045 23.5567L124.39 22.2546C124.833 22.0081 124.904 21.3913 124.42 21.2395C124.188 21.1665 123.936 21.13 123.669 21.13C122.823 21.13 121.977 21.5221 121.13 22.2761C120.955 22.4269 120.167 23.0302 119.934 23.6635C119.788 24.0255 119.817 24.3573 119.846 24.5684C119.875 24.8398 120.663 27.0416 121.335 27.8258C122.035 28.6402 122.823 29.0323 123.757 29.0323C125.113 29.0323 126.585 28.2616 128.112 26.7202C128.419 26.4102 128.917 26.3923 129.227 26.6994L132.468 29.9115C132.73 30.1714 132.776 30.5857 132.551 30.8798C131.931 31.6937 131.157 32.4251 130.264 33.0739C129.155 33.8581 127.988 34.4311 126.733 34.8534C125.478 35.2455 124.224 35.4566 122.969 35.4566C121.714 35.4566 120.547 35.2455 119.409 34.8534C118.27 34.4613 117.249 33.8581 116.315 33.0135C115.381 32.1992 114.652 31.1435 114.068 29.8768C113.514 28.61 113.105 27.1623 113.018 25.5034C113.018 25.4129 113.018 25.3827 113.018 25.2319C113.018 25.0811 113.018 24.9906 113.018 24.9906C113.018 22.7889 113.514 20.8887 114.477 19.3203C115.44 17.7519 116.695 16.5455 118.183 15.7613C119.7 14.9771 121.218 14.5548 122.764 14.5548C127.402 14.5548 130.703 16.8496 132.666 21.4392Z" fill="#040B1D"/>
</svg>
