<svg width="169" height="64" viewBox="0 0 169 64" fill="none" xmlns="http://www.w3.org/2000/svg">
<path d="M13.5684 52.7344C13.4629 53.6367 13.1289 54.334 12.5664 54.8262C12.0078 55.3145 11.2637 55.5586 10.334 55.5586C9.32617 55.5586 8.51758 55.1973 7.9082 54.4746C7.30273 53.752 7 52.7852 7 51.5742V50.7539C7 49.9609 7.14062 49.2637 7.42188 48.6621C7.70703 48.0605 8.10938 47.5996 8.62891 47.2793C9.14844 46.9551 9.75 46.793 10.4336 46.793C11.3398 46.793 12.0664 47.0469 12.6133 47.5547C13.1602 48.0586 13.4785 48.7578 13.5684 49.6523H12.4375C12.3398 48.9727 12.127 48.4805 11.7988 48.1758C11.4746 47.8711 11.0195 47.7188 10.4336 47.7188C9.71484 47.7188 9.15039 47.9844 8.74023 48.5156C8.33398 49.0469 8.13086 49.8027 8.13086 50.7832V51.6094C8.13086 52.5352 8.32422 53.2715 8.71094 53.8184C9.09766 54.3652 9.63867 54.6387 10.334 54.6387C10.959 54.6387 11.4375 54.498 11.7695 54.2168C12.1055 53.9316 12.3281 53.4375 12.4375 52.7344H13.5684Z" fill="#040B1D"/>
<path d="M14.6523 52.2129C14.6523 51.5918 14.7734 51.0332 15.0156 50.5371C15.2617 50.041 15.6016 49.6582 16.0352 49.3887C16.4727 49.1191 16.9707 48.9844 17.5293 48.9844C18.3926 48.9844 19.0898 49.2832 19.6211 49.8809C20.1562 50.4785 20.4238 51.2734 20.4238 52.2656V52.3418C20.4238 52.959 20.3047 53.5137 20.0664 54.0059C19.832 54.4941 19.4941 54.875 19.0527 55.1484C18.6152 55.4219 18.1113 55.5586 17.541 55.5586C16.6816 55.5586 15.9844 55.2598 15.4492 54.6621C14.918 54.0645 14.6523 53.2734 14.6523 52.2891V52.2129ZM15.7422 52.3418C15.7422 53.0449 15.9043 53.6094 16.2285 54.0352C16.5566 54.4609 16.9941 54.6738 17.541 54.6738C18.0918 54.6738 18.5293 54.459 18.8535 54.0293C19.1777 53.5957 19.3398 52.9902 19.3398 52.2129C19.3398 51.5176 19.1738 50.9551 18.8418 50.5254C18.5137 50.0918 18.0762 49.875 17.5293 49.875C16.9941 49.875 16.5625 50.0879 16.2344 50.5137C15.9062 50.9395 15.7422 51.5488 15.7422 52.3418Z" fill="#040B1D"/>
<path d="M22.9609 55.4414H21.877V46.4414H22.9609V55.4414Z" fill="#040B1D"/>
<path d="M25.8789 55.4414H24.7949V46.4414H25.8789V55.4414Z" fill="#040B1D"/>
<path d="M30.25 55.5586C29.3906 55.5586 28.6914 55.2773 28.1523 54.7148C27.6133 54.1484 27.3438 53.3926 27.3438 52.4473V52.248C27.3438 51.6191 27.4629 51.0586 27.7012 50.5664C27.9434 50.0703 28.2793 49.6836 28.709 49.4062C29.1426 49.125 29.6113 48.9844 30.1152 48.9844C30.9395 48.9844 31.5801 49.2559 32.0371 49.7988C32.4941 50.3418 32.7227 51.1191 32.7227 52.1309V52.582H28.4277C28.4434 53.207 28.625 53.7129 28.9727 54.0996C29.3242 54.4824 29.7695 54.6738 30.3086 54.6738C30.6914 54.6738 31.0156 54.5957 31.2812 54.4395C31.5469 54.2832 31.7793 54.0762 31.9785 53.8184L32.6406 54.334C32.1094 55.1504 31.3125 55.5586 30.25 55.5586ZM30.1152 49.875C29.6777 49.875 29.3105 50.0352 29.0137 50.3555C28.7168 50.6719 28.5332 51.1172 28.4629 51.6914H31.6387V51.6094C31.6074 51.0586 31.459 50.6328 31.1934 50.332C30.9277 50.0273 30.5684 49.875 30.1152 49.875Z" fill="#040B1D"/>
<path d="M36.5254 54.6738C36.9121 54.6738 37.25 54.5566 37.5391 54.3223C37.8281 54.0879 37.9883 53.7949 38.0195 53.4434H39.0449C39.0254 53.8066 38.9004 54.1523 38.6699 54.4805C38.4395 54.8086 38.1309 55.0703 37.7441 55.2656C37.3613 55.4609 36.9551 55.5586 36.5254 55.5586C35.6621 55.5586 34.9746 55.2715 34.4629 54.6973C33.9551 54.1191 33.7012 53.3301 33.7012 52.3301V52.1484C33.7012 51.5312 33.8145 50.9824 34.041 50.502C34.2676 50.0215 34.5918 49.6484 35.0137 49.3828C35.4395 49.1172 35.9414 48.9844 36.5195 48.9844C37.2305 48.9844 37.8203 49.1973 38.2891 49.623C38.7617 50.0488 39.0137 50.6016 39.0449 51.2812H38.0195C37.9883 50.8711 37.832 50.5352 37.5508 50.2734C37.2734 50.0078 36.9297 49.875 36.5195 49.875C35.9688 49.875 35.541 50.0742 35.2363 50.4727C34.9355 50.8672 34.7852 51.4395 34.7852 52.1895V52.3945C34.7852 53.125 34.9355 53.6875 35.2363 54.082C35.5371 54.4766 35.9668 54.6738 36.5254 54.6738Z" fill="#040B1D"/>
<path d="M41.7344 47.5664V49.1016H42.918V49.9395H41.7344V53.8711C41.7344 54.125 41.7871 54.3164 41.8926 54.4453C41.998 54.5703 42.1777 54.6328 42.4316 54.6328C42.5566 54.6328 42.7285 54.6094 42.9473 54.5625V55.4414C42.6621 55.5195 42.3848 55.5586 42.1152 55.5586C41.6309 55.5586 41.2656 55.4121 41.0195 55.1191C40.7734 54.8262 40.6504 54.4102 40.6504 53.8711V49.9395H39.4961V49.1016H40.6504V47.5664H41.7344Z" fill="#040B1D"/>
<path d="M45.3672 55.4414H44.2832V49.1016H45.3672V55.4414ZM44.1953 47.4199C44.1953 47.2441 44.248 47.0957 44.3535 46.9746C44.4629 46.8535 44.623 46.793 44.834 46.793C45.0449 46.793 45.2051 46.8535 45.3145 46.9746C45.4238 47.0957 45.4785 47.2441 45.4785 47.4199C45.4785 47.5957 45.4238 47.7422 45.3145 47.8594C45.2051 47.9766 45.0449 48.0352 44.834 48.0352C44.623 48.0352 44.4629 47.9766 44.3535 47.8594C44.248 47.7422 44.1953 47.5957 44.1953 47.4199Z" fill="#040B1D"/>
<path d="M46.8203 52.2129C46.8203 51.5918 46.9414 51.0332 47.1836 50.5371C47.4297 50.041 47.7695 49.6582 48.2031 49.3887C48.6406 49.1191 49.1387 48.9844 49.6973 48.9844C50.5605 48.9844 51.2578 49.2832 51.7891 49.8809C52.3242 50.4785 52.5918 51.2734 52.5918 52.2656V52.3418C52.5918 52.959 52.4727 53.5137 52.2344 54.0059C52 54.4941 51.6621 54.875 51.2207 55.1484C50.7832 55.4219 50.2793 55.5586 49.709 55.5586C48.8496 55.5586 48.1523 55.2598 47.6172 54.6621C47.0859 54.0645 46.8203 53.2734 46.8203 52.2891V52.2129ZM47.9102 52.3418C47.9102 53.0449 48.0723 53.6094 48.3965 54.0352C48.7246 54.4609 49.1621 54.6738 49.709 54.6738C50.2598 54.6738 50.6973 54.459 51.0215 54.0293C51.3457 53.5957 51.5078 52.9902 51.5078 52.2129C51.5078 51.5176 51.3418 50.9551 51.0098 50.5254C50.6816 50.0918 50.2441 49.875 49.6973 49.875C49.1621 49.875 48.7305 50.0879 48.4023 50.5137C48.0742 50.9395 47.9102 51.5488 47.9102 52.3418Z" fill="#040B1D"/>
<path d="M54.9766 49.1016L55.0117 49.8984C55.4961 49.2891 56.1289 48.9844 56.9102 48.9844C58.25 48.9844 58.9258 49.7402 58.9375 51.252V55.4414H57.8535V51.2461C57.8496 50.7891 57.7441 50.4512 57.5371 50.2324C57.334 50.0137 57.0156 49.9043 56.582 49.9043C56.2305 49.9043 55.9219 49.998 55.6562 50.1855C55.3906 50.373 55.1836 50.6191 55.0352 50.9238V55.4414H53.9512V49.1016H54.9766Z" fill="#040B1D"/>
<path d="M67.4629 55.4414C67.4004 55.3164 67.3496 55.0938 67.3105 54.7734C66.8066 55.2969 66.2051 55.5586 65.5059 55.5586C64.8809 55.5586 64.3672 55.3828 63.9648 55.0312C63.5664 54.6758 63.3672 54.2266 63.3672 53.6836C63.3672 53.0234 63.6172 52.5117 64.1172 52.1484C64.6211 51.7812 65.3281 51.5977 66.2383 51.5977H67.293V51.0996C67.293 50.7207 67.1797 50.4199 66.9531 50.1973C66.7266 49.9707 66.3926 49.8574 65.9512 49.8574C65.5645 49.8574 65.2402 49.9551 64.9785 50.1504C64.7168 50.3457 64.5859 50.582 64.5859 50.8594H63.4961C63.4961 50.543 63.6074 50.2383 63.8301 49.9453C64.0566 49.6484 64.3613 49.4141 64.7441 49.2422C65.1309 49.0703 65.5547 48.9844 66.0156 48.9844C66.7461 48.9844 67.3184 49.168 67.7324 49.5352C68.1465 49.8984 68.3613 50.4004 68.377 51.041V53.959C68.377 54.541 68.4512 55.0039 68.5996 55.3477V55.4414H67.4629ZM65.6641 54.6152C66.0039 54.6152 66.3262 54.5273 66.6309 54.3516C66.9355 54.1758 67.1562 53.9473 67.293 53.666V52.3652H66.4434C65.1152 52.3652 64.4512 52.7539 64.4512 53.5312C64.4512 53.8711 64.5645 54.1367 64.791 54.3281C65.0176 54.5195 65.3086 54.6152 65.6641 54.6152Z" fill="#040B1D"/>
<path d="M69.8125 52.2188C69.8125 51.2461 70.043 50.4648 70.5039 49.875C70.9648 49.2812 71.5684 48.9844 72.3145 48.9844C73.0566 48.9844 73.6445 49.2383 74.0781 49.7461V46.4414H75.1621V55.4414H74.166L74.1133 54.7617C73.6797 55.293 73.0762 55.5586 72.3027 55.5586C71.5684 55.5586 70.9688 55.2578 70.5039 54.6562C70.043 54.0547 69.8125 53.2695 69.8125 52.3008V52.2188ZM70.8965 52.3418C70.8965 53.0605 71.0449 53.623 71.3418 54.0293C71.6387 54.4355 72.0488 54.6387 72.5723 54.6387C73.2598 54.6387 73.7617 54.3301 74.0781 53.7129V50.8008C73.7539 50.2031 73.2559 49.9043 72.584 49.9043C72.0527 49.9043 71.6387 50.1094 71.3418 50.5195C71.0449 50.9297 70.8965 51.5371 70.8965 52.3418Z" fill="#040B1D"/>
<path d="M77.8691 49.1016L77.8984 49.8047C78.3633 49.2578 78.9902 48.9844 79.7793 48.9844C80.666 48.9844 81.2695 49.3242 81.5898 50.0039C81.8008 49.6992 82.0742 49.4531 82.4102 49.2656C82.75 49.0781 83.1504 48.9844 83.6113 48.9844C85.002 48.9844 85.709 49.7207 85.7324 51.1934V55.4414H84.6484V51.2578C84.6484 50.8047 84.5449 50.4668 84.3379 50.2441C84.1309 50.0176 83.7832 49.9043 83.2949 49.9043C82.8926 49.9043 82.5586 50.0254 82.293 50.2676C82.0273 50.5059 81.873 50.8281 81.8301 51.2344V55.4414H80.7402V51.2871C80.7402 50.3652 80.2891 49.9043 79.3867 49.9043C78.6758 49.9043 78.1895 50.207 77.9277 50.8125V55.4414H76.8438V49.1016H77.8691Z" fill="#040B1D"/>
<path d="M88.5508 55.4414H87.4668V49.1016H88.5508V55.4414ZM87.3789 47.4199C87.3789 47.2441 87.4316 47.0957 87.5371 46.9746C87.6465 46.8535 87.8066 46.793 88.0176 46.793C88.2285 46.793 88.3887 46.8535 88.498 46.9746C88.6074 47.0957 88.6621 47.2441 88.6621 47.4199C88.6621 47.5957 88.6074 47.7422 88.498 47.8594C88.3887 47.9766 88.2285 48.0352 88.0176 48.0352C87.8066 48.0352 87.6465 47.9766 87.5371 47.8594C87.4316 47.7422 87.3789 47.5957 87.3789 47.4199Z" fill="#040B1D"/>
<path d="M91.3164 49.1016L91.3516 49.8984C91.8359 49.2891 92.4688 48.9844 93.25 48.9844C94.5898 48.9844 95.2656 49.7402 95.2773 51.252V55.4414H94.1934V51.2461C94.1895 50.7891 94.084 50.4512 93.877 50.2324C93.6738 50.0137 93.3555 49.9043 92.9219 49.9043C92.5703 49.9043 92.2617 49.998 91.9961 50.1855C91.7305 50.373 91.5234 50.6191 91.375 50.9238V55.4414H90.291V49.1016H91.3164Z" fill="#040B1D"/>
<path d="M98.0898 55.4414H97.0059V49.1016H98.0898V55.4414ZM96.918 47.4199C96.918 47.2441 96.9707 47.0957 97.0762 46.9746C97.1855 46.8535 97.3457 46.793 97.5566 46.793C97.7676 46.793 97.9277 46.8535 98.0371 46.9746C98.1465 47.0957 98.2012 47.2441 98.2012 47.4199C98.2012 47.5957 98.1465 47.7422 98.0371 47.8594C97.9277 47.9766 97.7676 48.0352 97.5566 48.0352C97.3457 48.0352 97.1855 47.9766 97.0762 47.8594C96.9707 47.7422 96.918 47.5957 96.918 47.4199Z" fill="#040B1D"/>
<path d="M103.521 53.7598C103.521 53.4668 103.41 53.2402 103.188 53.0801C102.969 52.916 102.584 52.7754 102.033 52.6582C101.486 52.541 101.051 52.4004 100.727 52.2363C100.406 52.0723 100.168 51.877 100.012 51.6504C99.8594 51.4238 99.7832 51.1543 99.7832 50.8418C99.7832 50.3223 100.002 49.8828 100.439 49.5234C100.881 49.1641 101.443 48.9844 102.127 48.9844C102.846 48.9844 103.428 49.1699 103.873 49.541C104.322 49.9121 104.547 50.3867 104.547 50.9648H103.457C103.457 50.668 103.33 50.4121 103.076 50.1973C102.826 49.9824 102.51 49.875 102.127 49.875C101.732 49.875 101.424 49.9609 101.201 50.1328C100.979 50.3047 100.867 50.5293 100.867 50.8066C100.867 51.0684 100.971 51.2656 101.178 51.3984C101.385 51.5312 101.758 51.6582 102.297 51.7793C102.84 51.9004 103.279 52.0449 103.615 52.2129C103.951 52.3809 104.199 52.584 104.359 52.8223C104.523 53.0566 104.605 53.3438 104.605 53.6836C104.605 54.25 104.379 54.7051 103.926 55.0488C103.473 55.3887 102.885 55.5586 102.162 55.5586C101.654 55.5586 101.205 55.4688 100.814 55.2891C100.424 55.1094 100.117 54.8594 99.8945 54.5391C99.6758 54.2148 99.5664 53.8652 99.5664 53.4902H100.65C100.67 53.8535 100.814 54.1426 101.084 54.3574C101.357 54.5684 101.717 54.6738 102.162 54.6738C102.572 54.6738 102.9 54.5918 103.146 54.4277C103.396 54.2598 103.521 54.0371 103.521 53.7598Z" fill="#040B1D"/>
<path d="M107.488 47.5664V49.1016H108.672V49.9395H107.488V53.8711C107.488 54.125 107.541 54.3164 107.646 54.4453C107.752 54.5703 107.932 54.6328 108.186 54.6328C108.311 54.6328 108.482 54.6094 108.701 54.5625V55.4414C108.416 55.5195 108.139 55.5586 107.869 55.5586C107.385 55.5586 107.02 55.4121 106.773 55.1191C106.527 54.8262 106.404 54.4102 106.404 53.8711V49.9395H105.25V49.1016H106.404V47.5664H107.488Z" fill="#040B1D"/>
<path d="M113.008 50.0742C112.844 50.0469 112.666 50.0332 112.475 50.0332C111.764 50.0332 111.281 50.3359 111.027 50.9414V55.4414H109.943V49.1016H110.998L111.016 49.834C111.371 49.2676 111.875 48.9844 112.527 48.9844C112.738 48.9844 112.898 49.0117 113.008 49.0664V50.0742Z" fill="#040B1D"/>
<path d="M117.689 55.4414C117.627 55.3164 117.576 55.0938 117.537 54.7734C117.033 55.2969 116.432 55.5586 115.732 55.5586C115.107 55.5586 114.594 55.3828 114.191 55.0312C113.793 54.6758 113.594 54.2266 113.594 53.6836C113.594 53.0234 113.844 52.5117 114.344 52.1484C114.848 51.7812 115.555 51.5977 116.465 51.5977H117.52V51.0996C117.52 50.7207 117.406 50.4199 117.18 50.1973C116.953 49.9707 116.619 49.8574 116.178 49.8574C115.791 49.8574 115.467 49.9551 115.205 50.1504C114.943 50.3457 114.812 50.582 114.812 50.8594H113.723C113.723 50.543 113.834 50.2383 114.057 49.9453C114.283 49.6484 114.588 49.4141 114.971 49.2422C115.357 49.0703 115.781 48.9844 116.242 48.9844C116.973 48.9844 117.545 49.168 117.959 49.5352C118.373 49.8984 118.588 50.4004 118.604 51.041V53.959C118.604 54.541 118.678 55.0039 118.826 55.3477V55.4414H117.689ZM115.891 54.6152C116.23 54.6152 116.553 54.5273 116.857 54.3516C117.162 54.1758 117.383 53.9473 117.52 53.666V52.3652H116.67C115.342 52.3652 114.678 52.7539 114.678 53.5312C114.678 53.8711 114.791 54.1367 115.018 54.3281C115.244 54.5195 115.535 54.6152 115.891 54.6152Z" fill="#040B1D"/>
<path d="M121.773 47.5664V49.1016H122.957V49.9395H121.773V53.8711C121.773 54.125 121.826 54.3164 121.932 54.4453C122.037 54.5703 122.217 54.6328 122.471 54.6328C122.596 54.6328 122.768 54.6094 122.986 54.5625V55.4414C122.701 55.5195 122.424 55.5586 122.154 55.5586C121.67 55.5586 121.305 55.4121 121.059 55.1191C120.812 54.8262 120.689 54.4102 120.689 53.8711V49.9395H119.535V49.1016H120.689V47.5664H121.773Z" fill="#040B1D"/>
<path d="M123.824 52.2129C123.824 51.5918 123.945 51.0332 124.188 50.5371C124.434 50.041 124.773 49.6582 125.207 49.3887C125.645 49.1191 126.143 48.9844 126.701 48.9844C127.564 48.9844 128.262 49.2832 128.793 49.8809C129.328 50.4785 129.596 51.2734 129.596 52.2656V52.3418C129.596 52.959 129.477 53.5137 129.238 54.0059C129.004 54.4941 128.666 54.875 128.225 55.1484C127.787 55.4219 127.283 55.5586 126.713 55.5586C125.854 55.5586 125.156 55.2598 124.621 54.6621C124.09 54.0645 123.824 53.2734 123.824 52.2891V52.2129ZM124.914 52.3418C124.914 53.0449 125.076 53.6094 125.4 54.0352C125.729 54.4609 126.166 54.6738 126.713 54.6738C127.264 54.6738 127.701 54.459 128.025 54.0293C128.35 53.5957 128.512 52.9902 128.512 52.2129C128.512 51.5176 128.346 50.9551 128.014 50.5254C127.686 50.0918 127.248 49.875 126.701 49.875C126.166 49.875 125.734 50.0879 125.406 50.5137C125.078 50.9395 124.914 51.5488 124.914 52.3418Z" fill="#040B1D"/>
<path d="M134.02 50.0742C133.855 50.0469 133.678 50.0332 133.486 50.0332C132.775 50.0332 132.293 50.3359 132.039 50.9414V55.4414H130.955V49.1016H132.01L132.027 49.834C132.383 49.2676 132.887 48.9844 133.539 48.9844C133.75 48.9844 133.91 49.0117 134.02 49.0664V50.0742Z" fill="#040B1D"/>
<path d="M143.387 52.3418C143.387 53.3105 143.164 54.0898 142.719 54.6797C142.273 55.2656 141.676 55.5586 140.926 55.5586C140.125 55.5586 139.506 55.2754 139.068 54.709L139.016 55.4414H138.02V46.4414H139.104V49.7988C139.541 49.2559 140.145 48.9844 140.914 48.9844C141.684 48.9844 142.287 49.2754 142.725 49.8574C143.166 50.4395 143.387 51.2363 143.387 52.248V52.3418ZM142.303 52.2188C142.303 51.4805 142.16 50.9102 141.875 50.5078C141.59 50.1055 141.18 49.9043 140.645 49.9043C139.93 49.9043 139.416 50.2363 139.104 50.9004V53.6426C139.436 54.3066 139.953 54.6387 140.656 54.6387C141.176 54.6387 141.58 54.4375 141.869 54.0352C142.158 53.6328 142.303 53.0273 142.303 52.2188Z" fill="#7F90A1"/>
<path d="M147.389 55.5586C146.529 55.5586 145.83 55.2773 145.291 54.7148C144.752 54.1484 144.482 53.3926 144.482 52.4473V52.248C144.482 51.6191 144.602 51.0586 144.84 50.5664C145.082 50.0703 145.418 49.6836 145.848 49.4062C146.281 49.125 146.75 48.9844 147.254 48.9844C148.078 48.9844 148.719 49.2559 149.176 49.7988C149.633 50.3418 149.861 51.1191 149.861 52.1309V52.582H145.566C145.582 53.207 145.764 53.7129 146.111 54.0996C146.463 54.4824 146.908 54.6738 147.447 54.6738C147.83 54.6738 148.154 54.5957 148.42 54.4395C148.686 54.2832 148.918 54.0762 149.117 53.8184L149.779 54.334C149.248 55.1504 148.451 55.5586 147.389 55.5586ZM147.254 49.875C146.816 49.875 146.449 50.0352 146.152 50.3555C145.855 50.6719 145.672 51.1172 145.602 51.6914H148.777V51.6094C148.746 51.0586 148.598 50.6328 148.332 50.332C148.066 50.0273 147.707 49.875 147.254 49.875Z" fill="#7F90A1"/>
<path d="M152.592 47.5664V49.1016H153.775V49.9395H152.592V53.8711C152.592 54.125 152.645 54.3164 152.75 54.4453C152.855 54.5703 153.035 54.6328 153.289 54.6328C153.414 54.6328 153.586 54.6094 153.805 54.5625V55.4414C153.52 55.5195 153.242 55.5586 152.973 55.5586C152.488 55.5586 152.123 55.4121 151.877 55.1191C151.631 54.8262 151.508 54.4102 151.508 53.8711V49.9395H150.354V49.1016H151.508V47.5664H152.592Z" fill="#7F90A1"/>
<path d="M158.961 55.4414C158.898 55.3164 158.848 55.0938 158.809 54.7734C158.305 55.2969 157.703 55.5586 157.004 55.5586C156.379 55.5586 155.865 55.3828 155.463 55.0312C155.064 54.6758 154.865 54.2266 154.865 53.6836C154.865 53.0234 155.115 52.5117 155.615 52.1484C156.119 51.7812 156.826 51.5977 157.736 51.5977H158.791V51.0996C158.791 50.7207 158.678 50.4199 158.451 50.1973C158.225 49.9707 157.891 49.8574 157.449 49.8574C157.062 49.8574 156.738 49.9551 156.477 50.1504C156.215 50.3457 156.084 50.582 156.084 50.8594H154.994C154.994 50.543 155.105 50.2383 155.328 49.9453C155.555 49.6484 155.859 49.4141 156.242 49.2422C156.629 49.0703 157.053 48.9844 157.514 48.9844C158.244 48.9844 158.816 49.168 159.23 49.5352C159.645 49.8984 159.859 50.4004 159.875 51.041V53.959C159.875 54.541 159.949 55.0039 160.098 55.3477V55.4414H158.961ZM157.162 54.6152C157.502 54.6152 157.824 54.5273 158.129 54.3516C158.434 54.1758 158.654 53.9473 158.791 53.666V52.3652H157.941C156.613 52.3652 155.949 52.7539 155.949 53.5312C155.949 53.8711 156.062 54.1367 156.289 54.3281C156.516 54.5195 156.807 54.6152 157.162 54.6152Z" fill="#7F90A1"/>
<path fill-rule="evenodd" clip-rule="evenodd" d="M77.8038 39.9494C77.8038 40.4404 78.2495 40.8079 78.7176 40.6825C86.3352 38.6411 91.9546 31.5597 91.9546 23.1374C91.9546 13.1204 84.0056 5 74.2 5C64.3944 5 56.4455 13.1204 56.4455 23.1374C56.4455 31.7533 62.3262 38.966 70.2109 40.8153C70.6738 40.9238 71.1037 40.5582 71.1037 40.0765V35.7796C71.1037 35.4325 70.8749 35.1299 70.5493 35.0228C68.0522 34.2008 66.0326 32.7454 64.4903 30.6566C62.8471 28.4152 62.0255 25.8181 62.0255 22.8652C62.0255 18.9637 63.4604 15.7677 66.3303 13.2773C68.7141 11.2138 71.4277 10.1821 74.4711 10.1821C78.3939 10.1821 81.5588 11.6348 83.9658 14.5403C85.9099 16.8883 86.8819 19.5981 86.8819 22.6696C86.8819 25.6817 86.0198 28.3796 84.2956 30.7633C82.8495 32.7761 80.87 34.1959 78.357 35.0226C78.0318 35.1296 77.8038 35.432 77.8038 35.7786V39.9494ZM77.5781 25.5962C77.5781 25.1686 77.2362 24.822 76.8145 24.822H72.1103C71.6886 24.822 71.3467 25.1686 71.3467 25.5962V25.8899C71.3467 26.5464 70.6125 26.8714 70.246 26.3301C69.5911 25.3632 69.2637 24.2201 69.2637 22.9008C69.2637 21.3947 69.7787 20.0903 70.8086 18.9874C71.8385 17.8845 73.0593 17.3331 74.4711 17.3331C75.8713 17.3331 77.0863 17.8845 78.1162 18.9874C79.1461 20.0903 79.6611 21.3947 79.6611 22.9008C79.6611 24.18 79.3375 25.3071 78.6903 26.2823C78.3249 26.8329 77.5781 26.5105 77.5781 25.8469V25.5962Z" fill="#15ADFF"/>
<path d="M7 16.2881C7 15.8605 7.34189 15.5139 7.76364 15.5139H13.9616C14.3833 15.5139 14.7252 15.8605 14.7252 16.2881V26.7113C14.7252 27.199 14.8312 27.5843 15.0432 27.867C15.2553 28.1427 15.5152 28.2806 15.823 28.2806C16.1376 28.2806 16.4522 28.1321 16.7668 27.8352C17.0883 27.5313 17.249 27.1566 17.249 26.7113V16.2881C17.249 15.8605 17.5909 15.5139 18.0126 15.5139H24.3029C24.7246 15.5139 25.0665 15.8605 25.0665 16.2881V27.0188C25.0665 28.7931 24.6254 30.3306 23.7431 31.6313C22.8676 32.932 21.7186 33.9146 20.296 34.5791C18.8802 35.2436 17.3892 35.5758 15.823 35.5758C14.7081 35.5758 13.6206 35.3956 12.5605 35.0351C11.5004 34.6675 10.5497 34.1232 9.70844 33.4021C8.87402 32.674 8.21401 31.7727 7.72841 30.6982C7.2428 29.6237 7 28.3972 7 27.0188V16.2881Z" fill="#040B1D"/>
<path d="M27.6502 34.453C27.2284 34.453 26.8865 34.1064 26.8865 33.6788V22.0681C26.8865 20.5058 27.3072 19.1698 28.1484 18.0599C28.9965 16.943 30.1148 16.1018 31.5032 15.5363C32.8916 14.9707 34.3621 14.688 35.9147 14.688C37.5014 14.688 39.0095 14.9849 40.439 15.5787C41.8753 16.1654 43.0346 17.0455 43.9169 18.219C44.806 19.3924 45.2506 20.778 45.2506 22.3756V33.6788C45.2506 34.1064 44.9087 34.453 44.4869 34.453H37.8991C37.4774 34.453 37.1355 34.1064 37.1355 33.6788V22.8951C37.1355 22.471 37.0192 22.1564 36.7867 21.9514C36.561 21.7394 36.3011 21.6333 36.007 21.6333C35.6787 21.6333 35.3641 21.7606 35.0631 22.015C34.7622 22.2625 34.6117 22.5558 34.6117 22.8951V33.6788C34.6117 34.1064 34.2698 34.453 33.8481 34.453H27.6502Z" fill="#040B1D"/>
<path d="M47.8239 34.453C47.4022 34.453 47.0603 34.1064 47.0603 33.6788V15.6848C47.0603 15.2573 47.4022 14.9106 47.8239 14.9106H54.3297C54.7514 14.9106 55.0933 15.2573 55.0933 15.6848V33.6788C55.0933 34.1064 54.7514 34.453 54.3297 34.453H47.8239Z" fill="#040B1D"/>
<path d="M93.454 16.2881C93.454 15.8605 93.7959 15.5139 94.2176 15.5139H100.416C100.837 15.5139 101.179 15.8605 101.179 16.2881V26.7113C101.179 27.199 101.285 27.5843 101.497 27.867C101.709 28.1427 101.969 28.2806 102.277 28.2806C102.592 28.2806 102.906 28.1321 103.221 27.8352C103.542 27.5313 103.703 27.1566 103.703 26.7113V16.2881C103.703 15.8605 104.045 15.5139 104.467 15.5139H110.757C111.179 15.5139 111.521 15.8605 111.521 16.2881V27.0188C111.521 28.7931 111.079 30.3306 110.197 31.6313C109.322 32.932 108.173 33.9146 106.75 34.5791C105.334 35.2436 103.843 35.5758 102.277 35.5758C101.162 35.5758 100.075 35.3956 99.0145 35.0351C97.9544 34.6675 97.0037 34.1232 96.1624 33.4021C95.328 32.674 94.668 31.7727 94.1824 30.6982C93.6968 29.6237 93.454 28.3972 93.454 27.0188V16.2881Z" fill="#040B1D"/>
<path d="M132.666 21.4392C132.818 21.7943 132.671 22.2053 132.337 22.3934L124.008 27.0914C123.643 27.2977 123.181 27.167 122.974 26.7983L121.748 24.6191C121.537 24.2432 121.671 23.7646 122.045 23.5567L124.39 22.2546C124.833 22.0081 124.904 21.3913 124.42 21.2395C124.188 21.1665 123.936 21.13 123.669 21.13C122.823 21.13 121.977 21.5221 121.13 22.2761C120.955 22.4269 120.167 23.0302 119.934 23.6635C119.788 24.0255 119.817 24.3573 119.846 24.5684C119.875 24.8398 120.663 27.0416 121.335 27.8258C122.035 28.6402 122.823 29.0323 123.757 29.0323C125.113 29.0323 126.585 28.2616 128.112 26.7202C128.419 26.4102 128.917 26.3923 129.227 26.6994L132.468 29.9115C132.73 30.1714 132.776 30.5857 132.551 30.8798C131.931 31.6937 131.157 32.4251 130.264 33.0739C129.155 33.8581 127.988 34.4311 126.733 34.8534C125.478 35.2455 124.224 35.4566 122.969 35.4566C121.714 35.4566 120.547 35.2455 119.409 34.8534C118.27 34.4613 117.249 33.8581 116.315 33.0135C115.381 32.1992 114.652 31.1435 114.068 29.8768C113.514 28.61 113.105 27.1623 113.018 25.5034C113.018 25.4129 113.018 25.3827 113.018 25.2319C113.018 25.0811 113.018 24.9906 113.018 24.9906C113.018 22.7889 113.514 20.8887 114.477 19.3203C115.44 17.7519 116.695 16.5455 118.183 15.7613C119.7 14.9771 121.218 14.5548 122.764 14.5548C127.402 14.5548 130.703 16.8496 132.666 21.4392Z" fill="#040B1D"/>
</svg>
