<svg width="169" height="64" viewBox="0 0 169 64" fill="none" xmlns="http://www.w3.org/2000/svg">
  <path d="M7.35742 47.1172H8.45312L11.248 54.0723L14.0371 47.1172H15.1387L11.6699 55.6484H10.8145L7.35742 47.1172ZM7 47.1172H7.9668L8.125 52.3203V55.6484H7V47.1172ZM14.5234 47.1172H15.4902V55.6484H14.3652V52.3203L14.5234 47.1172Z" fill="black"/>
  <path d="M18.4902 49.3086V55.6484H17.4004V49.3086H18.4902ZM17.3184 47.627C17.3184 47.4512 17.3711 47.3027 17.4766 47.1816C17.5859 47.0605 17.7461 47 17.957 47C18.1641 47 18.3223 47.0605 18.4316 47.1816C18.5449 47.3027 18.6016 47.4512 18.6016 47.627C18.6016 47.7949 18.5449 47.9395 18.4316 48.0605C18.3223 48.1777 18.1641 48.2363 17.957 48.2363C17.7461 48.2363 17.5859 48.1777 17.4766 48.0605C17.3711 47.9395 17.3184 47.7949 17.3184 47.627Z" fill="black"/>
  <path d="M21.3145 50.6621V55.6484H20.2305V49.3086H21.2559L21.3145 50.6621ZM21.0566 52.2383L20.6055 52.2207C20.6094 51.7871 20.6738 51.3867 20.7988 51.0195C20.9238 50.6484 21.0996 50.3262 21.3262 50.0527C21.5527 49.7793 21.8223 49.5684 22.1348 49.4199C22.4512 49.2676 22.8008 49.1914 23.1836 49.1914C23.4961 49.1914 23.7773 49.2344 24.0273 49.3203C24.2773 49.4023 24.4902 49.5352 24.666 49.7188C24.8457 49.9023 24.9824 50.1406 25.0762 50.4336C25.1699 50.7227 25.2168 51.0762 25.2168 51.4941V55.6484H24.127V51.4824C24.127 51.1504 24.0781 50.8848 23.9805 50.6855C23.8828 50.4824 23.7402 50.3359 23.5527 50.2461C23.3652 50.1523 23.1348 50.1055 22.8613 50.1055C22.5918 50.1055 22.3457 50.1621 22.123 50.2754C21.9043 50.3887 21.7148 50.5449 21.5547 50.7441C21.3984 50.9434 21.2754 51.1719 21.1855 51.4297C21.0996 51.6836 21.0566 51.9531 21.0566 52.2383Z" fill="black"/>
  <path d="M29.5176 49.3086V50.1406H26.0898V49.3086H29.5176ZM27.25 47.7676H28.334V54.0781C28.334 54.293 28.3672 54.4551 28.4336 54.5645C28.5 54.6738 28.5859 54.7461 28.6914 54.7812C28.7969 54.8164 28.9102 54.834 29.0312 54.834C29.1211 54.834 29.2148 54.8262 29.3125 54.8105C29.4141 54.791 29.4902 54.7754 29.541 54.7637L29.5469 55.6484C29.4609 55.6758 29.3477 55.7012 29.207 55.7246C29.0703 55.752 28.9043 55.7656 28.709 55.7656C28.4434 55.7656 28.1992 55.7129 27.9766 55.6074C27.7539 55.502 27.5762 55.3262 27.4434 55.0801C27.3145 54.8301 27.25 54.4941 27.25 54.0723V47.7676Z" fill="black"/>
  <path d="M33.4199 55.7656C32.9785 55.7656 32.5781 55.6914 32.2188 55.543C31.8633 55.3906 31.5566 55.1777 31.2988 54.9043C31.0449 54.6309 30.8496 54.3066 30.7129 53.9316C30.5762 53.5566 30.5078 53.1465 30.5078 52.7012V52.4551C30.5078 51.9395 30.584 51.4805 30.7363 51.0781C30.8887 50.6719 31.0957 50.3281 31.3574 50.0469C31.6191 49.7656 31.916 49.5527 32.248 49.4082C32.5801 49.2637 32.9238 49.1914 33.2793 49.1914C33.7324 49.1914 34.123 49.2695 34.4512 49.4258C34.7832 49.582 35.0547 49.8008 35.2656 50.082C35.4766 50.3594 35.6328 50.6875 35.7344 51.0664C35.8359 51.4414 35.8867 51.8516 35.8867 52.2969V52.7832H31.1523V51.8984H34.8027V51.8164C34.7871 51.5352 34.7285 51.2617 34.627 50.9961C34.5293 50.7305 34.373 50.5117 34.1582 50.3398C33.9434 50.168 33.6504 50.082 33.2793 50.082C33.0332 50.082 32.8066 50.1348 32.5996 50.2402C32.3926 50.3418 32.2148 50.4941 32.0664 50.6973C31.918 50.9004 31.8027 51.1484 31.7207 51.4414C31.6387 51.7344 31.5977 52.0723 31.5977 52.4551V52.7012C31.5977 53.002 31.6387 53.2852 31.7207 53.5508C31.8066 53.8125 31.9297 54.043 32.0898 54.2422C32.2539 54.4414 32.4512 54.5977 32.6816 54.7109C32.916 54.8242 33.1816 54.8809 33.4785 54.8809C33.8613 54.8809 34.1855 54.8027 34.4512 54.6465C34.7168 54.4902 34.9492 54.2812 35.1484 54.0195L35.8047 54.541C35.668 54.748 35.4941 54.9453 35.2832 55.1328C35.0723 55.3203 34.8125 55.4727 34.5039 55.5898C34.1992 55.707 33.8379 55.7656 33.4199 55.7656Z" fill="black"/>
  <path d="M38.2363 50.3047V55.6484H37.1523V49.3086H38.207L38.2363 50.3047ZM40.2168 49.2734L40.2109 50.2812C40.1211 50.2617 40.0352 50.25 39.9531 50.2461C39.875 50.2383 39.7852 50.2344 39.6836 50.2344C39.4336 50.2344 39.2129 50.2734 39.0215 50.3516C38.8301 50.4297 38.668 50.5391 38.5352 50.6797C38.4023 50.8203 38.2969 50.9883 38.2188 51.1836C38.1445 51.375 38.0957 51.5859 38.0723 51.8164L37.7676 51.9922C37.7676 51.6094 37.8047 51.25 37.8789 50.9141C37.957 50.5781 38.0762 50.2812 38.2363 50.0234C38.3965 49.7617 38.5996 49.5586 38.8457 49.4141C39.0957 49.2656 39.3926 49.1914 39.7363 49.1914C39.8145 49.1914 39.9043 49.2012 40.0059 49.2207C40.1074 49.2363 40.1777 49.2539 40.2168 49.2734Z" fill="black"/>
  <path d="M49.3672 52.9004C49.3672 53.8691 49.1445 54.6484 48.6992 55.2383C48.2539 55.8242 47.6562 56.1172 46.9062 56.1172C46.1055 56.1172 45.4863 55.834 45.0488 55.2676L44.9961 56H44V47H45.084V50.3574C45.5215 49.8145 46.125 49.543 46.8945 49.543C47.6641 49.543 48.2676 49.834 48.7051 50.416C49.1465 50.998 49.3672 51.7949 49.3672 52.8066V52.9004ZM48.2832 52.7773C48.2832 52.0391 48.1406 51.4688 47.8555 51.0664C47.5703 50.6641 47.1602 50.4629 46.625 50.4629C45.9102 50.4629 45.3965 50.7949 45.084 51.459V54.2012C45.416 54.8652 45.9336 55.1973 46.6367 55.1973C47.1562 55.1973 47.5605 54.9961 47.8496 54.5938C48.1387 54.1914 48.2832 53.5859 48.2832 52.7773Z" fill="#7F90A1"/>
  <path d="M53.3691 56.1172C52.5098 56.1172 51.8105 55.8359 51.2715 55.2734C50.7324 54.707 50.4629 53.9512 50.4629 53.0059V52.8066C50.4629 52.1777 50.582 51.6172 50.8203 51.125C51.0625 50.6289 51.3984 50.2422 51.8281 49.9648C52.2617 49.6836 52.7305 49.543 53.2344 49.543C54.0586 49.543 54.6992 49.8145 55.1562 50.3574C55.6133 50.9004 55.8418 51.6777 55.8418 52.6895V53.1406H51.5469C51.5625 53.7656 51.7441 54.2715 52.0918 54.6582C52.4434 55.041 52.8887 55.2324 53.4277 55.2324C53.8105 55.2324 54.1348 55.1543 54.4004 54.998C54.666 54.8418 54.8984 54.6348 55.0977 54.377L55.7598 54.8926C55.2285 55.709 54.4316 56.1172 53.3691 56.1172ZM53.2344 50.4336C52.7969 50.4336 52.4297 50.5938 52.1328 50.9141C51.8359 51.2305 51.6523 51.6758 51.582 52.25H54.7578V52.168C54.7266 51.6172 54.5781 51.1914 54.3125 50.8906C54.0469 50.5859 53.6875 50.4336 53.2344 50.4336Z" fill="#7F90A1"/>
  <path d="M58.5723 48.125V49.6602H59.7559V50.498H58.5723V54.4297C58.5723 54.6836 58.625 54.875 58.7305 55.0039C58.8359 55.1289 59.0156 55.1914 59.2695 55.1914C59.3945 55.1914 59.5664 55.168 59.7852 55.1211V56C59.5 56.0781 59.2227 56.1172 58.9531 56.1172C58.4688 56.1172 58.1035 55.9707 57.8574 55.6777C57.6113 55.3848 57.4883 54.9688 57.4883 54.4297V50.498H56.334V49.6602H57.4883V48.125H58.5723Z" fill="#7F90A1"/>
  <path d="M64.9414 56C64.8789 55.875 64.8281 55.6523 64.7891 55.332C64.2852 55.8555 63.6836 56.1172 62.9844 56.1172C62.3594 56.1172 61.8457 55.9414 61.4434 55.5898C61.0449 55.2344 60.8457 54.7852 60.8457 54.2422C60.8457 53.582 61.0957 53.0703 61.5957 52.707C62.0996 52.3398 62.8066 52.1562 63.7168 52.1562H64.7715V51.6582C64.7715 51.2793 64.6582 50.9785 64.4316 50.7559C64.2051 50.5293 63.8711 50.416 63.4297 50.416C63.043 50.416 62.7188 50.5137 62.457 50.709C62.1953 50.9043 62.0645 51.1406 62.0645 51.418H60.9746C60.9746 51.1016 61.0859 50.7969 61.3086 50.5039C61.5352 50.207 61.8398 49.9727 62.2227 49.8008C62.6094 49.6289 63.0332 49.543 63.4941 49.543C64.2246 49.543 64.7969 49.7266 65.2109 50.0938C65.625 50.457 65.8398 50.959 65.8555 51.5996V54.5176C65.8555 55.0996 65.9297 55.5625 66.0781 55.9062V56H64.9414ZM63.1426 55.1738C63.4824 55.1738 63.8047 55.0859 64.1094 54.9102C64.4141 54.7344 64.6348 54.5059 64.7715 54.2246V52.9238H63.9219C62.5938 52.9238 61.9297 53.3125 61.9297 54.0898C61.9297 54.4297 62.043 54.6953 62.2695 54.8867C62.4961 55.0781 62.7871 55.1738 63.1426 55.1738Z" fill="#7F90A1"/>
  <path fill-rule="evenodd" clip-rule="evenodd" d="M77.8038 39.9494C77.8038 40.4404 78.2495 40.8079 78.7176 40.6825C86.3352 38.6411 91.9546 31.5597 91.9546 23.1374C91.9546 13.1204 84.0056 5 74.2 5C64.3944 5 56.4455 13.1204 56.4455 23.1374C56.4455 31.7533 62.3262 38.966 70.2109 40.8153C70.6738 40.9238 71.1037 40.5582 71.1037 40.0765V35.7796C71.1037 35.4325 70.8749 35.1299 70.5493 35.0228C68.0522 34.2008 66.0326 32.7454 64.4903 30.6566C62.8471 28.4152 62.0255 25.8181 62.0255 22.8652C62.0255 18.9637 63.4604 15.7677 66.3303 13.2773C68.7141 11.2138 71.4277 10.1821 74.4711 10.1821C78.3939 10.1821 81.5588 11.6348 83.9658 14.5403C85.9099 16.8883 86.8819 19.5981 86.8819 22.6696C86.8819 25.6817 86.0198 28.3796 84.2956 30.7633C82.8495 32.7761 80.87 34.1959 78.357 35.0226C78.0318 35.1296 77.8038 35.432 77.8038 35.7786V39.9494ZM77.5781 25.5962C77.5781 25.1686 77.2362 24.822 76.8145 24.822H72.1103C71.6886 24.822 71.3467 25.1686 71.3467 25.5962V25.8899C71.3467 26.5464 70.6125 26.8714 70.246 26.3301C69.5911 25.3632 69.2637 24.2201 69.2637 22.9008C69.2637 21.3947 69.7787 20.0903 70.8086 18.9874C71.8385 17.8845 73.0593 17.3331 74.4711 17.3331C75.8713 17.3331 77.0863 17.8845 78.1162 18.9874C79.1461 20.0903 79.6611 21.3947 79.6611 22.9008C79.6611 24.18 79.3375 25.3071 78.6903 26.2823C78.3249 26.8329 77.5781 26.5105 77.5781 25.8469V25.5962Z" fill="#15ADFF"/>
  <path d="M7 16.2881C7 15.8605 7.34189 15.5139 7.76364 15.5139H13.9616C14.3833 15.5139 14.7252 15.8605 14.7252 16.2881V26.7113C14.7252 27.199 14.8312 27.5843 15.0432 27.867C15.2553 28.1427 15.5152 28.2806 15.823 28.2806C16.1376 28.2806 16.4522 28.1321 16.7668 27.8352C17.0883 27.5313 17.249 27.1566 17.249 26.7113V16.2881C17.249 15.8605 17.5909 15.5139 18.0126 15.5139H24.3029C24.7246 15.5139 25.0665 15.8605 25.0665 16.2881V27.0188C25.0665 28.7931 24.6254 30.3306 23.7431 31.6313C22.8676 32.932 21.7186 33.9146 20.296 34.5791C18.8802 35.2436 17.3892 35.5758 15.823 35.5758C14.7081 35.5758 13.6206 35.3956 12.5605 35.0351C11.5004 34.6675 10.5497 34.1232 9.70844 33.4021C8.87402 32.674 8.21401 31.7727 7.72841 30.6982C7.2428 29.6237 7 28.3972 7 27.0188V16.2881Z" fill="#040B1D"/>
  <path d="M27.6502 34.453C27.2284 34.453 26.8865 34.1064 26.8865 33.6788V22.0681C26.8865 20.5058 27.3072 19.1698 28.1484 18.0599C28.9965 16.943 30.1148 16.1018 31.5032 15.5363C32.8916 14.9707 34.3621 14.688 35.9147 14.688C37.5014 14.688 39.0095 14.9849 40.439 15.5787C41.8753 16.1654 43.0346 17.0455 43.9169 18.219C44.806 19.3924 45.2506 20.778 45.2506 22.3756V33.6788C45.2506 34.1064 44.9087 34.453 44.4869 34.453H37.8991C37.4774 34.453 37.1355 34.1064 37.1355 33.6788V22.8951C37.1355 22.471 37.0192 22.1564 36.7867 21.9514C36.561 21.7394 36.3011 21.6333 36.007 21.6333C35.6787 21.6333 35.3641 21.7606 35.0631 22.015C34.7622 22.2625 34.6117 22.5558 34.6117 22.8951V33.6788C34.6117 34.1064 34.2698 34.453 33.8481 34.453H27.6502Z" fill="#040B1D"/>
  <path d="M47.8239 34.453C47.4022 34.453 47.0603 34.1064 47.0603 33.6788V15.6848C47.0603 15.2573 47.4022 14.9106 47.8239 14.9106H54.3297C54.7514 14.9106 55.0933 15.2573 55.0933 15.6848V33.6788C55.0933 34.1064 54.7514 34.453 54.3297 34.453H47.8239Z" fill="#040B1D"/>
  <path d="M93.454 16.2881C93.454 15.8605 93.7959 15.5139 94.2176 15.5139H100.416C100.837 15.5139 101.179 15.8605 101.179 16.2881V26.7113C101.179 27.199 101.285 27.5843 101.497 27.867C101.709 28.1427 101.969 28.2806 102.277 28.2806C102.592 28.2806 102.906 28.1321 103.221 27.8352C103.542 27.5313 103.703 27.1566 103.703 26.7113V16.2881C103.703 15.8605 104.045 15.5139 104.467 15.5139H110.757C111.179 15.5139 111.521 15.8605 111.521 16.2881V27.0188C111.521 28.7931 111.079 30.3306 110.197 31.6313C109.322 32.932 108.173 33.9146 106.75 34.5791C105.334 35.2436 103.843 35.5758 102.277 35.5758C101.162 35.5758 100.075 35.3956 99.0145 35.0351C97.9544 34.6675 97.0037 34.1232 96.1624 33.4021C95.328 32.674 94.668 31.7727 94.1824 30.6982C93.6968 29.6237 93.454 28.3972 93.454 27.0188V16.2881Z" fill="#040B1D"/>
  <path d="M132.666 21.4392C132.818 21.7943 132.671 22.2053 132.337 22.3934L124.008 27.0914C123.643 27.2977 123.181 27.167 122.974 26.7983L121.748 24.6191C121.537 24.2432 121.671 23.7646 122.045 23.5567L124.39 22.2546C124.833 22.0081 124.904 21.3913 124.42 21.2395C124.188 21.1665 123.936 21.13 123.669 21.13C122.823 21.13 121.977 21.5221 121.13 22.2761C120.955 22.4269 120.167 23.0302 119.934 23.6635C119.788 24.0255 119.817 24.3573 119.846 24.5684C119.875 24.8398 120.663 27.0416 121.335 27.8258C122.035 28.6402 122.823 29.0323 123.757 29.0323C125.113 29.0323 126.585 28.2616 128.112 26.7202C128.419 26.4102 128.917 26.3923 129.227 26.6994L132.468 29.9115C132.73 30.1714 132.776 30.5857 132.551 30.8798C131.931 31.6937 131.157 32.4251 130.264 33.0739C129.155 33.8581 127.988 34.4311 126.733 34.8534C125.478 35.2455 124.224 35.4566 122.969 35.4566C121.714 35.4566 120.547 35.2455 119.409 34.8534C118.27 34.4613 117.249 33.8581 116.315 33.0135C115.381 32.1992 114.652 31.1435 114.068 29.8768C113.514 28.61 113.105 27.1623 113.018 25.5034C113.018 25.4129 113.018 25.3827 113.018 25.2319C113.018 25.0811 113.018 24.9906 113.018 24.9906C113.018 22.7889 113.514 20.8887 114.477 19.3203C115.44 17.7519 116.695 16.5455 118.183 15.7613C119.7 14.9771 121.218 14.5548 122.764 14.5548C127.402 14.5548 130.703 16.8496 132.666 21.4392Z" fill="#040B1D"/>
</svg>
